<?xml version="1.0" standalone="no"?><!DOCTYPE svg PUBLIC "-//W3C//DTD SVG 1.1//EN" "http://www.w3.org/Graphics/SVG/1.1/DTD/svg11.dtd"><svg t="1571021324052" class="icon" viewBox="0 0 1024 1024" version="1.1" xmlns="http://www.w3.org/2000/svg" p-id="1780" xmlns:xlink="http://www.w3.org/1999/xlink" width="200" height="200"><defs><style type="text/css"></style></defs><path d="M845.88544 116.43904 178.11456 116.43904c-34.21184 0-62.0544 27.83232-62.0544 62.04416l0 667.0336c0 34.21184 27.84256 62.0544 62.0544 62.0544l667.77088 0c34.21184 0 62.0544-27.84256 62.0544-62.0544L907.93984 178.4832C907.93984 144.26112 880.09728 116.43904 845.88544 116.43904zM803.81952 187.06432c14.6944 0 26.59328 11.90912 26.59328 26.59328 0 14.6944-11.89888 26.59328-26.59328 26.59328s-26.59328-11.90912-26.59328-26.59328C777.22624 198.97344 789.12512 187.06432 803.81952 187.06432zM708.52608 187.06432c14.6944 0 26.59328 11.90912 26.59328 26.59328 0 14.6944-11.89888 26.59328-26.59328 26.59328s-26.59328-11.90912-26.59328-26.59328C681.9328 198.97344 693.83168 187.06432 708.52608 187.06432zM837.02784 836.64896 186.97216 836.64896 186.97216 306.26816l650.04544 0L837.0176 836.64896zM316.24192 703.60064l-4.864 0c-15.93344 0-23.9104-2.52928-23.9104-7.58784 0-4.52608 4.98688-14.6432 14.96064-30.32064l24.33024-38.67648 119.84896 0 7.43424 39.45472c2.2016 11.9296 3.29728 21.1968 3.29728 27.81184 0 6.21568-9.39008 9.32864-28.19072 9.32864l-6.01088 0-2.53952 12.05248 107.88864 0 2.51904-12.05248-4.85376-0.19456c-10.11712-0.52224-16.88576-3.05152-20.31616-7.58784s-6.83008-15.616-10.20928-33.23904l-46.0288-239.48288-14.20288 0L285.1328 666.08128c-12.4416 19.43552-20.1216 30.35136-23.02976 32.75776-2.9184 2.39616-10.46528 3.92192-22.65088 4.56704l-3.6864 0.19456-2.33472 12.05248 80.29184 0L316.24192 703.60064zM417.98656 474.80832l25.05728 135.29088-108.544 0L417.98656 474.80832zM603.65824 720.50688c17.08032 0 35.52256-8.52992 55.30624-25.61024 19.80416-17.08032 37.76512-39.82336 53.8624-68.25984l-17.74592 89.00608 74.3424 0 2.32448-12.05248-3.49184-0.19456c-13.74208-0.91136-21.84192-1.81248-24.29952-2.73408-2.46784-0.90112-3.69664-3.4304-3.69664-7.5776 0-7.91552 1.09568-17.18272 3.29728-27.82208l31.6416-160.72704-38.21568 0c-7.89504-1.60768-14.6944-2.82624-20.38784-3.6352-5.69344-0.80896-10.3424-1.21856-13.96736-1.21856-34.4064 0-66.43712 18.1248-96.07168 54.3744-29.62432 36.25984-44.43136 75.45856-44.43136 117.6064 0 16.20992 3.45088 28.40576 10.38336 36.57728C579.4304 716.42112 589.81376 720.50688 603.65824 720.50688zM613.00736 600.77056c6.84032-23.31648 15.03232-41.984 24.58624-55.97184 11.99104-17.50016 27.66848-26.24512 47.02208-26.24512 8.38656 0 16.50688 0.95232 24.39168 2.8672 7.87456 1.90464 15.54432 4.83328 23.04 8.79616l-13.44512 67.46112c-40.11008 62.70976-72.51968 94.06464-97.2288 94.06464-6.21568 0-10.86464-2.33472-13.96736-6.99392-3.11296-4.66944-4.64896-11.66336-4.64896-20.992C602.75712 645.08928 606.16704 624.09728 613.00736 600.77056z" p-id="1781"></path></svg>